HIERARCHY
ROOT Hip
{
	OFFSET 0 1.131 0.0052
	CHANNELS 6 Xposition Yposition Zposition Xrotation Yrotation Zrotation
	JOINT Abdomen
	{
		OFFSET 0 -0.047353 -0.05
		CHANNELS 3 Xrotation Zrotation Yrotation
		JOINT Chest
		{
			OFFSET 0 0.132153 0.007439
			CHANNELS 3 Xrotation Zrotation Yrotation
			JOINT Neck
			{
				OFFSET 0 0.3078 0.006161
				CHANNELS 3 Xrotation Zrotation Yrotation
				JOINT Head_comp
				{
					OFFSET 0 0.0884 0.013
					CHANNELS 3 Xrotation Yrotation Zrotation
					End Site
					{
						OFFSET -0 0.156 0.0624
					}
				}
			}
			JOINT Left_Collar
			{
				OFFSET 0.02282 0.250342 0.017193
				CHANNELS 2 Yrotation Zrotation
				JOINT Left_Shoulder
				{
					OFFSET 0.15421 0 0
					CHANNELS 3 Xrotation Yrotation Zrotation
					JOINT Left_Forearm
					{
						OFFSET 0.265212 0 0
						CHANNELS 2 Yrotation Xrotation
						JOINT Left_Hand
						{
							OFFSET 0.27571 0 0
							CHANNELS 2 Zrotation Yrotation
							JOINT L1ProxPhalanx
							{
								OFFSET 0.014142 0.001733 0.014142
								CHANNELS 3 Yrotation Zrotation Xrotation
								JOINT L1MidPhalanx
								{
									OFFSET 0.04 0 0
									CHANNELS 1 Zrotation
									JOINT L1DistPhalanx
									{
										OFFSET 0.035 0 0
										CHANNELS 1 Zrotation
										End Site
										{
											OFFSET 0.029 -0 -0
										}
									}
								}
							}
							JOINT L2ProxPhalanx
							{
								OFFSET 0.0821037 0.001578 0.0219996
								CHANNELS 2 Yrotation Zrotation
								JOINT L2MidPhalanx
								{
									OFFSET 0.04 0 0
									CHANNELS 1 Zrotation
									JOINT L2DistPhalanx
									{
										OFFSET 0.028 0 0
										CHANNELS 1 Zrotation
										End Site
										{
											OFFSET 0.02 -0 -0
										}
									}
								}
							}
							JOINT L3ProxPhalanx
							{
								OFFSET 0.083 0 0
								CHANNELS 2 Yrotation Zrotation
								JOINT L3MidPhalanx
								{
									OFFSET 0.053 0 0
									CHANNELS 1 Zrotation
									JOINT L3DistPhalanx
									{
										OFFSET 0.03 0 0
										CHANNELS 1 Zrotation
										End Site
										{
											OFFSET 0.023 -0 -0
										}
									}
								}
							}
							JOINT L4ProxPhalanx
							{
								OFFSET 0.077274 -0.000761 -0.0207055
								CHANNELS 2 Yrotation Zrotation
								JOINT L4MidPhalanx
								{
									OFFSET 0.05 0 0
									CHANNELS 1 Zrotation
									JOINT L4DistPhalanx
									{
										OFFSET 0.03 0 0
										CHANNELS 1 Zrotation
										End Site
										{
											OFFSET 0.023 -0 -0
										}
									}
								}
							}
							JOINT L5ProxPhalanx
							{
								OFFSET 0.0675499 -0.001644 -0.039
								CHANNELS 2 Yrotation Zrotation
								JOINT L5MidPhalanx
								{
									OFFSET 0.04 0 0
									CHANNELS 1 Zrotation
									JOINT L5DistPhalanx
									{
										OFFSET 0.021 0 0
										CHANNELS 1 Zrotation
										End Site
										{
											OFFSET 0.022 -0 -0
										}
									}
								}
							}
						}
					}
				}
			}
			JOINT Right_Collar
			{
				OFFSET -0.02282 0.250342 0.017193
				CHANNELS 2 Yrotation Zrotation
				JOINT Right_Shoulder
				{
					OFFSET -0.15421 0 0
					CHANNELS 3 Xrotation Yrotation Zrotation
					JOINT Right_Forearm
					{
						OFFSET -0.265212 0 0
						CHANNELS 2 Yrotation Xrotation
						JOINT Right_Hand
						{
							OFFSET -0.27571 3e-006 0
							CHANNELS 2 Zrotation Yrotation
							JOINT R1ProxPhalanx
							{
								OFFSET -0.014142 0.001733 0.014142
								CHANNELS 3 Yrotation Zrotation Xrotation
								JOINT R1MidPhalanx
								{
									OFFSET -0.04 0 0
									CHANNELS 1 Zrotation
									JOINT R1DistPhalanx
									{
										OFFSET -0.035 0 0
										CHANNELS 1 Zrotation
										End Site
										{
											OFFSET -0.029 -0 -0
										}
									}
								}
							}
							JOINT R2ProxPhalanx
							{
								OFFSET -0.0821037 0.001578 0.0219996
								CHANNELS 2 Yrotation Zrotation
								JOINT R2MidPhalanx
								{
									OFFSET -0.04 0 0
									CHANNELS 1 Zrotation
									JOINT R2DistPhalanx
									{
										OFFSET -0.028 0 0
										CHANNELS 1 Zrotation
										End Site
										{
											OFFSET -0.02 -0 -0
										}
									}
								}
							}
							JOINT R3ProxPhalanx
							{
								OFFSET -0.083 0 0
								CHANNELS 2 Yrotation Zrotation
								JOINT R3MidPhalanx
								{
									OFFSET -0.053 0 0
									CHANNELS 1 Zrotation
									JOINT R3DistPhalanx
									{
										OFFSET -0.03 0 0
										CHANNELS 1 Zrotation
										End Site
										{
											OFFSET -0.023 -0 -0
										}
									}
								}
							}
							JOINT R4ProxPhalanx
							{
								OFFSET -0.077274 -0.000761 -0.0207055
								CHANNELS 2 Yrotation Zrotation
								JOINT R4MidPhalanx
								{
									OFFSET -0.05 0 0
									CHANNELS 1 Zrotation
									JOINT R4DistPhalanx
									{
										OFFSET -0.03 0 0
										CHANNELS 1 Zrotation
										End Site
										{
											OFFSET -0.023 -0 -0
										}
									}
								}
							}
							JOINT R5ProxPhalanx
							{
								OFFSET -0.0675499 -0.001644 -0.039
								CHANNELS 2 Yrotation Zrotation
								JOINT R5MidPhalanx
								{
									OFFSET -0.04 0 0
									CHANNELS 1 Zrotation
									JOINT R5DistPhalanx
									{
										OFFSET -0.021 0 0
										CHANNELS 1 Zrotation
										End Site
										{
											OFFSET -0.022 -0 -0
										}
									}
								}
							}
						}
					}
				}
			}
		}
	}
	JOINT Left_Thigh
	{
		OFFSET 0.1118 -0.1612 -0.0442
		CHANNELS 3 Xrotation Zrotation Yrotation
		JOINT Left_Shin
		{
			OFFSET 0 -0.477856 0
			CHANNELS 1 Xrotation
			JOINT Left_Foot
			{
				OFFSET 0 -0.431952 0
				CHANNELS 2 Xrotation Zrotation
				JOINT Left_Toe
				{
					OFFSET 0 -0.0442 0.119
					CHANNELS 1 Xrotation
					End Site
					{
						OFFSET -0 -0 0.07
					}
				}
			}
		}
	}
	JOINT Right_Thigh
	{
		OFFSET -0.1118 -0.1612 -0.0442
		CHANNELS 3 Xrotation Zrotation Yrotation
		JOINT Right_Shin
		{
			OFFSET 0 -0.477856 0
			CHANNELS 1 Xrotation
			JOINT Right_Foot
			{
				OFFSET 0 -0.431952 0
				CHANNELS 2 Xrotation Zrotation
				JOINT Right_Toe
				{
					OFFSET 0 -0.0442 0.119
					CHANNELS 1 Xrotation
					End Site
					{
						OFFSET -0 -0 0.07
					}
				}
			}
		}
	}
}
MOTION
Frames: 7
Frame Time: 0.009975
-0.104764 -0.0600376 0.0332162 -2.40795e-013 -3.27161e-008 -5.10937e-006 0 -0 0 0 -0 0 0 -0 0 -0.711492 0.300354 9.75895e-014 -11.1182 -15.3937 -22.9905 -26.1035 -22.7118 -27.0457 18.7851 6.3977 -4.30274 -25.1932 -76.2826 110.14 -8.01952 -7.76782 -4.76231 -24.8242 -9.66671 -14.4782 0.628936 0.431265 -3.28419 -4.96365 -0.36062 1.79926 -6.5661 -2.81471 8.6241 3.95937 -32.1439 24.2071 6.7059 23.0258 -29.4142 16.6349 43.4284 31.9804 0.839298 -46.608 -1.49706 38.9656 59.7367 110.037 8.85473 10.0035 -5.02567 4.89627 31.3686 37.2673 -5.70481 1.33696 4.13108 4.89392 1.52924 0.508969 12.1322 0.0905804 -1.45956 -2.58087 58.8093 -40.7382 -0.375655 -0.443067 0.00290498 0.0240216 0.351622 0.443082 0 -0.364251 -0.443067 0.00281679 2.41484e-006 0.364237 0.443082 0 
-0.104764 -0.060037 0.0333099 3.62885e-013 -3.22467e-008 -5.10938e-006 0 -0 0 0 -0 0 0 -0 0 -0.711497 0.300342 1.2229e-013 -11.1182 -15.3937 -22.9905 -26.1035 -22.7118 -27.0457 18.7851 6.3977 -4.30274 -25.1932 -76.2826 110.14 -8.01952 -7.76782 -4.76231 -24.8242 -9.66671 -14.4782 0.628936 0.431265 -3.28419 -4.96365 -0.36062 1.79926 -6.5661 -2.81471 8.6241 3.95937 -32.1439 24.2071 6.65189 22.8836 -28.8223 16.329 43.5092 32.6706 0.832539 -46.2327 -1.48501 38.9431 59.0411 109.241 9.23586 10.4078 -4.62792 5.18828 31.3172 36.8808 -5.57975 1.79949 4.75549 5.40318 1.30649 1.17092 12.5722 0.609533 -1.59923 -1.9382 58.2907 -39.187 -0.369756 -0.443092 0.00285952 0.0240216 0.345724 0.443106 0 -0.358352 -0.443092 0.00277133 2.56986e-006 0.358339 0.443106 0 
-0.104763 -0.0600363 0.0334238 -7.19273e-013 -3.16605e-008 -5.10938e-006 0 -0 0 0 -0 0 0 -0 0 -0.711502 0.30033 1.47111e-013 -11.1182 -15.3937 -22.9905 -26.1035 -22.7118 -27.0457 18.7851 6.3977 -4.30274 -25.1932 -76.2826 110.14 -8.01952 -7.76782 -4.76231 -24.8242 -9.66671 -14.4782 0.628936 0.431265 -3.28419 -4.96365 -0.36062 1.79926 -6.5661 -2.81471 8.6241 3.95937 -32.1439 24.2071 6.58992 22.7185 -28.117 15.9533 43.5959 33.5485 0.824783 -45.8019 -1.47117 38.9206 58.3456 108.444 9.61699 10.8121 -4.23018 5.48029 31.2659 36.4943 -5.45469 2.26201 5.3799 5.91244 1.08375 1.83288 13.0123 1.12849 -1.7389 -1.29553 57.7721 -37.6359 -0.362585 -0.443141 0.00280437 0.0240216 0.338552 0.443155 0 -0.35118 -0.443142 0.00271616 1.70755e-006 0.351167 0.443155 0 
-0.104762 -0.0600355 0.0335567 1.28799e-013 -3.0963e-008 -5.10938e-006 0 -0 0 0 -0 0 0 -0 0 -0.711508 0.300319 1.66784e-013 -11.1182 -15.3937 -22.9905 -26.1035 -22.7118 -27.0457 18.7851 6.3977 -4.30274 -25.1932 -76.2826 110.14 -8.01952 -7.76782 -4.76231 -24.8242 -9.66671 -14.4782 0.628936 0.431265 -3.28419 -4.96365 -0.36062 1.79926 -6.5661 -2.81471 8.6241 3.95937 -32.1439 24.2071 6.52052 22.5319 -27.3089 15.5171 43.691 34.5954 0.816096 -45.3196 -1.45568 38.8981 57.65 107.647 9.99812 11.2164 -3.83244 5.7723 31.2145 36.1078 -5.32963 2.72454 6.00432 6.4217 0.860998 2.49483 13.4523 1.64744 -1.87857 -0.652863 57.2535 -36.0848 -0.354215 -0.443207 0.00274004 0.0240216 0.330183 0.443221 0 -0.34281 -0.443208 0.00265182 8.70849e-007 0.342799 0.443221 0 
-0.104761 -0.0600346 0.0337071 -1.26894e-012 -3.01623e-008 -5.10939e-006 0 -0 0 0 -0 0 0 -0 0 -0.711516 0.300309 1.75047e-013 -11.1182 -15.3937 -22.9905 -26.1035 -22.7118 -27.0457 18.7851 6.3977 -4.30274 -25.1932 -76.2826 110.14 -8.01952 -7.76782 -4.76231 -24.8242 -9.66671 -14.4782 0.628936 0.431265 -3.28419 -4.96365 -0.36062 1.79926 -6.5661 -2.81471 8.6241 3.95937 -32.1439 24.2071 6.44417 22.3248 -26.4099 15.0314 43.7975 35.7871 0.806541 -44.7889 -1.43863 38.8756 56.9545 106.851 10.3792 11.6207 -3.4347 6.06431 31.1631 35.7212 -5.20457 3.18706 6.62873 6.93096 0.63825 3.15679 13.8924 2.16639 -2.01825 -0.0101976 56.7349 -34.5336 -0.344743 -0.443277 0.00266719 0.0240216 0.320711 0.44329 0 -0.333338 -0.443278 0.00257895 8.32429e-007 0.333327 0.44329 0 
-0.10476 -0.0600337 0.0338734 8.30062e-013 -2.92672e-008 -5.10939e-006 0 -0 0 0 -0 0 0 -0 0 -0.711524 0.3003 1.66959e-013 -11.1182 -15.3937 -22.9905 -26.1035 -22.7118 -27.0457 18.7851 6.3977 -4.30274 -25.1932 -76.2826 110.14 -8.01952 -7.76782 -4.76231 -24.8242 -9.66671 -14.4782 0.628936 0.431265 -3.28419 -4.96365 -0.36062 1.79926 -6.5661 -2.81471 8.6241 3.95937 -32.1439 24.2071 6.36132 22.0986 -25.4317 14.5073 43.9184 37.0982 0.796172 -44.2131 -1.42014 38.8531 56.2589 106.054 10.7604 12.0251 -3.03695 6.35632 31.1117 35.3347 -5.07951 3.64959 7.25314 7.44022 0.415501 3.81874 14.3324 2.68535 -2.15792 0.632472 56.2163 -32.9825 -0.334266 -0.443338 0.00258648 0.0240216 0.310234 0.443351 0 -0.322861 -0.443338 0.00249823 1.70755e-006 0.322849 0.44335 0 
-0.10476 -0.0600327 0.0340542 -1.36758e-012 -2.82867e-008 -5.1094e-006 0 -0 0 0 -0 0 0 -0 0 -0.711534 0.300292 1.39689e-013 -11.1182 -15.3937 -22.9905 -26.1035 -22.7118 -27.0457 18.7851 6.3977 -4.30274 -25.1932 -76.2826 110.14 -8.01952 -7.76782 -4.76231 -24.8242 -9.66671 -14.4782 0.628936 0.431265 -3.28419 -4.96365 -0.36062 1.79926 -6.5661 -2.81471 8.6241 3.95937 -32.1439 24.2071 6.27237 21.8542 -24.3847 13.9552 44.0563 38.5053 0.785039 -43.5949 -1.40028 38.8306 55.5634 105.258 11.1415 12.4294 -2.63921 6.64833 31.0603 34.9482 -4.95445 4.11211 7.87756 7.94948 0.192754 4.4807 14.7724 3.2043 -2.29759 1.27514 55.6977 -31.4314 -0.322878 -0.443375 0.00249858 0.0240216 0.298847 0.443387 0 -0.311473 -0.443376 0.00241032 1.24968e-006 0.311463 0.443387 0 
